<mxfile host="Electron" modified="2024-04-28T08:50:29.926Z" agent="Mozilla/5.0 (X11; Linux x86_64) AppleWebKit/537.36 (KHTML, like Gecko) draw.io/24.2.5 Chrome/120.0.6099.109 Electron/28.1.0 Safari/537.36" etag="3-1uxnnfad2CwBtlnacy" version="24.2.5" type="device">
  <diagram id="R2lEEEUBdFMjLlhIrx00" name="Page-1">
    <mxGraphModel dx="2537" dy="2124" grid="1" gridSize="10" guides="1" tooltips="1" connect="1" arrows="1" fold="1" page="1" pageScale="1" pageWidth="850" pageHeight="1100" math="0" shadow="0" extFonts="Permanent Marker^https://fonts.googleapis.com/css?family=Permanent+Marker">
      <root>
        <mxCell id="0" />
        <mxCell id="1" parent="0" />
        <mxCell id="PZtJmmARqpZn-6BWuwpZ-14" style="rounded=0;sketch=1;hachureGap=4;jiggle=2;curveFitting=1;orthogonalLoop=1;jettySize=auto;html=1;fontFamily=Architects Daughter;fontSource=https%3A%2F%2Ffonts.googleapis.com%2Fcss%3Ffamily%3DArchitects%2BDaughter;endArrow=none;endFill=0;" parent="1" source="PZtJmmARqpZn-6BWuwpZ-2" target="PZtJmmARqpZn-6BWuwpZ-36" edge="1">
          <mxGeometry relative="1" as="geometry" />
        </mxCell>
        <mxCell id="PZtJmmARqpZn-6BWuwpZ-16" style="rounded=0;sketch=1;hachureGap=4;jiggle=2;curveFitting=1;orthogonalLoop=1;jettySize=auto;html=1;fontFamily=Architects Daughter;fontSource=https%3A%2F%2Ffonts.googleapis.com%2Fcss%3Ffamily%3DArchitects%2BDaughter;endArrow=none;endFill=0;" parent="1" source="PZtJmmARqpZn-6BWuwpZ-2" target="PZtJmmARqpZn-6BWuwpZ-15" edge="1">
          <mxGeometry relative="1" as="geometry" />
        </mxCell>
        <mxCell id="PZtJmmARqpZn-6BWuwpZ-20" style="rounded=0;sketch=1;hachureGap=4;jiggle=2;curveFitting=1;orthogonalLoop=1;jettySize=auto;html=1;exitX=0.75;exitY=1;exitDx=0;exitDy=0;fontFamily=Architects Daughter;fontSource=https%3A%2F%2Ffonts.googleapis.com%2Fcss%3Ffamily%3DArchitects%2BDaughter;endArrow=none;endFill=0;" parent="1" source="PZtJmmARqpZn-6BWuwpZ-2" target="PZtJmmARqpZn-6BWuwpZ-19" edge="1">
          <mxGeometry relative="1" as="geometry" />
        </mxCell>
        <mxCell id="nFG6gQNWqiVOLWOZAv4C-54" value="&lt;font face=&quot;Courier New&quot;&gt;1:N&lt;/font&gt;" style="edgeLabel;html=1;align=center;verticalAlign=middle;resizable=0;points=[];sketch=1;hachureGap=4;jiggle=2;curveFitting=1;fontFamily=Architects Daughter;fontSource=https%3A%2F%2Ffonts.googleapis.com%2Fcss%3Ffamily%3DArchitects%2BDaughter;" parent="PZtJmmARqpZn-6BWuwpZ-20" vertex="1" connectable="0">
          <mxGeometry x="-0.1008" y="-1" relative="1" as="geometry">
            <mxPoint as="offset" />
          </mxGeometry>
        </mxCell>
        <mxCell id="PZtJmmARqpZn-6BWuwpZ-34" style="edgeStyle=orthogonalEdgeStyle;rounded=0;sketch=1;hachureGap=4;jiggle=2;curveFitting=1;orthogonalLoop=1;jettySize=auto;html=1;fontFamily=Architects Daughter;fontSource=https%3A%2F%2Ffonts.googleapis.com%2Fcss%3Ffamily%3DArchitects%2BDaughter;endArrow=none;endFill=0;" parent="1" source="PZtJmmARqpZn-6BWuwpZ-2" target="PZtJmmARqpZn-6BWuwpZ-6" edge="1">
          <mxGeometry relative="1" as="geometry" />
        </mxCell>
        <mxCell id="nFG6gQNWqiVOLWOZAv4C-57" value="1:1" style="edgeLabel;html=1;align=center;verticalAlign=middle;resizable=0;points=[];sketch=1;hachureGap=4;jiggle=2;curveFitting=1;fontFamily=Courier New;labelBackgroundColor=none;" parent="PZtJmmARqpZn-6BWuwpZ-34" vertex="1" connectable="0">
          <mxGeometry x="-0.4571" y="1" relative="1" as="geometry">
            <mxPoint x="-12" y="-10" as="offset" />
          </mxGeometry>
        </mxCell>
        <mxCell id="PZtJmmARqpZn-6BWuwpZ-2" value="Gen" style="whiteSpace=wrap;html=1;align=center;sketch=1;hachureGap=4;jiggle=2;curveFitting=1;fontFamily=Architects Daughter;fontSource=https%3A%2F%2Ffonts.googleapis.com%2Fcss%3Ffamily%3DArchitects%2BDaughter;" parent="1" vertex="1">
          <mxGeometry x="390" y="230" width="90" height="50" as="geometry" />
        </mxCell>
        <mxCell id="PZtJmmARqpZn-6BWuwpZ-51" style="rounded=0;sketch=1;hachureGap=4;jiggle=2;curveFitting=1;orthogonalLoop=1;jettySize=auto;html=1;fontFamily=Architects Daughter;fontSource=https%3A%2F%2Ffonts.googleapis.com%2Fcss%3Ffamily%3DArchitects%2BDaughter;endArrow=none;endFill=0;" parent="1" source="PZtJmmARqpZn-6BWuwpZ-3" target="PZtJmmARqpZn-6BWuwpZ-4" edge="1">
          <mxGeometry relative="1" as="geometry" />
        </mxCell>
        <mxCell id="nFG6gQNWqiVOLWOZAv4C-56" value="0:N" style="edgeLabel;html=1;align=center;verticalAlign=middle;resizable=0;points=[];sketch=1;hachureGap=4;jiggle=2;curveFitting=1;fontFamily=Courier New;" parent="PZtJmmARqpZn-6BWuwpZ-51" vertex="1" connectable="0">
          <mxGeometry x="0.1122" y="-1" relative="1" as="geometry">
            <mxPoint as="offset" />
          </mxGeometry>
        </mxCell>
        <mxCell id="PZtJmmARqpZn-6BWuwpZ-3" value="Gen-Anotacion" style="shape=rhombus;perimeter=rhombusPerimeter;whiteSpace=wrap;html=1;align=center;sketch=1;hachureGap=4;jiggle=2;curveFitting=1;fontFamily=Architects Daughter;fontSource=https%3A%2F%2Ffonts.googleapis.com%2Fcss%3Ffamily%3DArchitects%2BDaughter;" parent="1" vertex="1">
          <mxGeometry x="590" y="190" width="120" height="60" as="geometry" />
        </mxCell>
        <mxCell id="PZtJmmARqpZn-6BWuwpZ-59" style="rounded=0;sketch=1;hachureGap=4;jiggle=2;curveFitting=1;orthogonalLoop=1;jettySize=auto;html=1;fontFamily=Architects Daughter;fontSource=https%3A%2F%2Ffonts.googleapis.com%2Fcss%3Ffamily%3DArchitects%2BDaughter;endArrow=none;endFill=0;" parent="1" source="PZtJmmARqpZn-6BWuwpZ-4" target="PZtJmmARqpZn-6BWuwpZ-58" edge="1">
          <mxGeometry relative="1" as="geometry" />
        </mxCell>
        <mxCell id="PZtJmmARqpZn-6BWuwpZ-77" style="rounded=0;sketch=1;hachureGap=4;jiggle=2;curveFitting=1;orthogonalLoop=1;jettySize=auto;html=1;fontFamily=Architects Daughter;fontSource=https%3A%2F%2Ffonts.googleapis.com%2Fcss%3Ffamily%3DArchitects%2BDaughter;endArrow=none;endFill=0;" parent="1" source="PZtJmmARqpZn-6BWuwpZ-4" target="PZtJmmARqpZn-6BWuwpZ-60" edge="1">
          <mxGeometry relative="1" as="geometry" />
        </mxCell>
        <mxCell id="PZtJmmARqpZn-6BWuwpZ-80" style="rounded=0;sketch=1;hachureGap=4;jiggle=2;curveFitting=1;orthogonalLoop=1;jettySize=auto;html=1;fontFamily=Architects Daughter;fontSource=https%3A%2F%2Ffonts.googleapis.com%2Fcss%3Ffamily%3DArchitects%2BDaughter;endArrow=none;endFill=0;" parent="1" source="PZtJmmARqpZn-6BWuwpZ-4" target="PZtJmmARqpZn-6BWuwpZ-79" edge="1">
          <mxGeometry relative="1" as="geometry" />
        </mxCell>
        <mxCell id="PZtJmmARqpZn-6BWuwpZ-4" value="Anotacion" style="shape=ext;margin=3;double=1;whiteSpace=wrap;html=1;align=center;sketch=1;hachureGap=4;jiggle=2;curveFitting=1;fontFamily=Architects Daughter;fontSource=https%3A%2F%2Ffonts.googleapis.com%2Fcss%3Ffamily%3DArchitects%2BDaughter;" parent="1" vertex="1">
          <mxGeometry x="790" y="195" width="100" height="40" as="geometry" />
        </mxCell>
        <mxCell id="PZtJmmARqpZn-6BWuwpZ-6" value="Gen-Alelo" style="shape=rhombus;perimeter=rhombusPerimeter;whiteSpace=wrap;html=1;align=center;sketch=1;hachureGap=4;jiggle=2;curveFitting=1;fontFamily=Architects Daughter;fontSource=https%3A%2F%2Ffonts.googleapis.com%2Fcss%3Ffamily%3DArchitects%2BDaughter;" parent="1" vertex="1">
          <mxGeometry x="375" y="126" width="120" height="60" as="geometry" />
        </mxCell>
        <mxCell id="PZtJmmARqpZn-6BWuwpZ-41" style="rounded=0;sketch=1;hachureGap=4;jiggle=2;curveFitting=1;orthogonalLoop=1;jettySize=auto;html=1;fontFamily=Architects Daughter;fontSource=https%3A%2F%2Ffonts.googleapis.com%2Fcss%3Ffamily%3DArchitects%2BDaughter;endArrow=none;endFill=0;" parent="1" source="PZtJmmARqpZn-6BWuwpZ-8" target="PZtJmmARqpZn-6BWuwpZ-40" edge="1">
          <mxGeometry relative="1" as="geometry" />
        </mxCell>
        <mxCell id="PZtJmmARqpZn-6BWuwpZ-43" style="rounded=0;sketch=1;hachureGap=4;jiggle=2;curveFitting=1;orthogonalLoop=1;jettySize=auto;html=1;entryX=0.304;entryY=0.951;entryDx=0;entryDy=0;fontFamily=Architects Daughter;fontSource=https%3A%2F%2Ffonts.googleapis.com%2Fcss%3Ffamily%3DArchitects%2BDaughter;endArrow=none;endFill=0;entryPerimeter=0;" parent="1" source="PZtJmmARqpZn-6BWuwpZ-8" target="PZtJmmARqpZn-6BWuwpZ-38" edge="1">
          <mxGeometry relative="1" as="geometry" />
        </mxCell>
        <mxCell id="PZtJmmARqpZn-6BWuwpZ-45" style="rounded=0;sketch=1;hachureGap=4;jiggle=2;curveFitting=1;orthogonalLoop=1;jettySize=auto;html=1;fontFamily=Architects Daughter;fontSource=https%3A%2F%2Ffonts.googleapis.com%2Fcss%3Ffamily%3DArchitects%2BDaughter;exitX=1;exitY=0.75;exitDx=0;exitDy=0;endArrow=none;endFill=0;entryX=0;entryY=0.5;entryDx=0;entryDy=0;" parent="1" source="vLm5K6zsSryO9WKZu8Rw-6" target="PZtJmmARqpZn-6BWuwpZ-44" edge="1">
          <mxGeometry relative="1" as="geometry" />
        </mxCell>
        <mxCell id="PZtJmmARqpZn-6BWuwpZ-49" style="rounded=0;sketch=1;hachureGap=4;jiggle=2;curveFitting=1;orthogonalLoop=1;jettySize=auto;html=1;fontFamily=Architects Daughter;fontSource=https%3A%2F%2Ffonts.googleapis.com%2Fcss%3Ffamily%3DArchitects%2BDaughter;endArrow=none;endFill=0;" parent="1" source="PZtJmmARqpZn-6BWuwpZ-8" target="PZtJmmARqpZn-6BWuwpZ-48" edge="1">
          <mxGeometry relative="1" as="geometry" />
        </mxCell>
        <mxCell id="WIoP-Z5x5fmVM3cqrzwO-21" value="0:N" style="edgeStyle=orthogonalEdgeStyle;rounded=0;sketch=1;hachureGap=4;jiggle=2;curveFitting=1;orthogonalLoop=1;jettySize=auto;html=1;fontFamily=Courier New;endArrow=none;endFill=0;" edge="1" parent="1" source="PZtJmmARqpZn-6BWuwpZ-8" target="WIoP-Z5x5fmVM3cqrzwO-20">
          <mxGeometry relative="1" as="geometry" />
        </mxCell>
        <mxCell id="PZtJmmARqpZn-6BWuwpZ-8" value="Secuencia" style="whiteSpace=wrap;html=1;align=center;sketch=1;hachureGap=4;jiggle=2;curveFitting=1;fontFamily=Architects Daughter;fontSource=https%3A%2F%2Ffonts.googleapis.com%2Fcss%3Ffamily%3DArchitects%2BDaughter;" parent="1" vertex="1">
          <mxGeometry x="20" y="-180" width="100" height="40" as="geometry" />
        </mxCell>
        <mxCell id="PZtJmmARqpZn-6BWuwpZ-81" style="rounded=0;sketch=1;hachureGap=4;jiggle=2;curveFitting=1;orthogonalLoop=1;jettySize=auto;html=1;entryX=0;entryY=0.25;entryDx=0;entryDy=0;fontFamily=Architects Daughter;fontSource=https%3A%2F%2Ffonts.googleapis.com%2Fcss%3Ffamily%3DArchitects%2BDaughter;endArrow=none;endFill=0;exitX=1;exitY=0.5;exitDx=0;exitDy=0;" parent="1" source="PZtJmmARqpZn-6BWuwpZ-91" target="PZtJmmARqpZn-6BWuwpZ-2" edge="1">
          <mxGeometry relative="1" as="geometry" />
        </mxCell>
        <mxCell id="nFG6gQNWqiVOLWOZAv4C-67" value="0:N" style="edgeLabel;html=1;align=center;verticalAlign=middle;resizable=0;points=[];sketch=1;hachureGap=4;jiggle=2;curveFitting=1;fontFamily=Courier New;" parent="PZtJmmARqpZn-6BWuwpZ-81" vertex="1" connectable="0">
          <mxGeometry x="-0.075" y="3" relative="1" as="geometry">
            <mxPoint y="-6" as="offset" />
          </mxGeometry>
        </mxCell>
        <mxCell id="PZtJmmARqpZn-6BWuwpZ-92" style="rounded=0;sketch=1;hachureGap=4;jiggle=2;curveFitting=1;orthogonalLoop=1;jettySize=auto;html=1;fontFamily=Architects Daughter;fontSource=https%3A%2F%2Ffonts.googleapis.com%2Fcss%3Ffamily%3DArchitects%2BDaughter;endArrow=none;endFill=0;entryX=0.038;entryY=0.526;entryDx=0;entryDy=0;entryPerimeter=0;" parent="1" source="PZtJmmARqpZn-6BWuwpZ-9" target="PZtJmmARqpZn-6BWuwpZ-91" edge="1">
          <mxGeometry relative="1" as="geometry" />
        </mxCell>
        <mxCell id="nFG6gQNWqiVOLWOZAv4C-68" value="0:N" style="edgeLabel;html=1;align=center;verticalAlign=middle;resizable=0;points=[];sketch=1;hachureGap=4;jiggle=2;curveFitting=1;fontFamily=Courier New;labelBackgroundColor=none;" parent="PZtJmmARqpZn-6BWuwpZ-92" vertex="1" connectable="0">
          <mxGeometry x="0.0741" y="-2" relative="1" as="geometry">
            <mxPoint y="-9" as="offset" />
          </mxGeometry>
        </mxCell>
        <mxCell id="nFG6gQNWqiVOLWOZAv4C-30" value="" style="rounded=0;sketch=1;hachureGap=4;jiggle=2;curveFitting=1;orthogonalLoop=1;jettySize=auto;html=1;fontFamily=Architects Daughter;fontSource=https%3A%2F%2Ffonts.googleapis.com%2Fcss%3Ffamily%3DArchitects%2BDaughter;endArrow=none;endFill=0;entryX=0;entryY=0.5;entryDx=0;entryDy=0;" parent="1" source="PZtJmmARqpZn-6BWuwpZ-9" target="PZtJmmARqpZn-6BWuwpZ-93" edge="1">
          <mxGeometry relative="1" as="geometry" />
        </mxCell>
        <mxCell id="nFG6gQNWqiVOLWOZAv4C-72" value="0:N" style="edgeLabel;html=1;align=center;verticalAlign=middle;resizable=0;points=[];sketch=1;hachureGap=4;jiggle=2;curveFitting=1;fontFamily=Courier New;" parent="nFG6gQNWqiVOLWOZAv4C-30" vertex="1" connectable="0">
          <mxGeometry x="-0.0692" y="1" relative="1" as="geometry">
            <mxPoint as="offset" />
          </mxGeometry>
        </mxCell>
        <mxCell id="PZtJmmARqpZn-6BWuwpZ-9" value="Estudio" style="whiteSpace=wrap;html=1;align=center;sketch=1;hachureGap=4;jiggle=2;curveFitting=1;fontFamily=Architects Daughter;fontSource=https%3A%2F%2Ffonts.googleapis.com%2Fcss%3Ffamily%3DArchitects%2BDaughter;" parent="1" vertex="1">
          <mxGeometry x="50" y="50" width="100" height="40" as="geometry" />
        </mxCell>
        <mxCell id="PZtJmmARqpZn-6BWuwpZ-55" style="rounded=0;sketch=1;hachureGap=4;jiggle=2;curveFitting=1;orthogonalLoop=1;jettySize=auto;html=1;fontFamily=Architects Daughter;fontSource=https%3A%2F%2Ffonts.googleapis.com%2Fcss%3Ffamily%3DArchitects%2BDaughter;endArrow=none;endFill=0;exitX=1.041;exitY=0.604;exitDx=0;exitDy=0;entryX=-0.046;entryY=0.498;entryDx=0;entryDy=0;entryPerimeter=0;exitPerimeter=0;" parent="1" source="PZtJmmARqpZn-6BWuwpZ-8" target="PZtJmmARqpZn-6BWuwpZ-11" edge="1">
          <mxGeometry relative="1" as="geometry" />
        </mxCell>
        <mxCell id="nFG6gQNWqiVOLWOZAv4C-62" value="1:1" style="edgeLabel;html=1;align=center;verticalAlign=middle;resizable=0;points=[];sketch=1;hachureGap=4;jiggle=2;curveFitting=1;fontFamily=Courier New;" parent="PZtJmmARqpZn-6BWuwpZ-55" vertex="1" connectable="0">
          <mxGeometry x="-0.1114" y="-3" relative="1" as="geometry">
            <mxPoint as="offset" />
          </mxGeometry>
        </mxCell>
        <mxCell id="PZtJmmARqpZn-6BWuwpZ-15" value="Descripcion" style="ellipse;whiteSpace=wrap;html=1;align=center;sketch=1;hachureGap=4;jiggle=2;curveFitting=1;fontFamily=Architects Daughter;fontSource=https%3A%2F%2Ffonts.googleapis.com%2Fcss%3Ffamily%3DArchitects%2BDaughter;" parent="1" vertex="1">
          <mxGeometry x="390" y="390" width="100" height="40" as="geometry" />
        </mxCell>
        <mxCell id="PZtJmmARqpZn-6BWuwpZ-23" style="rounded=0;sketch=1;hachureGap=4;jiggle=2;curveFitting=1;orthogonalLoop=1;jettySize=auto;html=1;entryX=0;entryY=0.5;entryDx=0;entryDy=0;fontFamily=Architects Daughter;fontSource=https%3A%2F%2Ffonts.googleapis.com%2Fcss%3Ffamily%3DArchitects%2BDaughter;endArrow=none;endFill=0;" parent="1" source="PZtJmmARqpZn-6BWuwpZ-18" target="PZtJmmARqpZn-6BWuwpZ-22" edge="1">
          <mxGeometry relative="1" as="geometry" />
        </mxCell>
        <mxCell id="PZtJmmARqpZn-6BWuwpZ-27" style="rounded=0;sketch=1;hachureGap=4;jiggle=2;curveFitting=1;orthogonalLoop=1;jettySize=auto;html=1;entryX=0;entryY=0.5;entryDx=0;entryDy=0;fontFamily=Architects Daughter;fontSource=https%3A%2F%2Ffonts.googleapis.com%2Fcss%3Ffamily%3DArchitects%2BDaughter;endArrow=none;endFill=0;" parent="1" source="PZtJmmARqpZn-6BWuwpZ-18" target="PZtJmmARqpZn-6BWuwpZ-26" edge="1">
          <mxGeometry relative="1" as="geometry" />
        </mxCell>
        <mxCell id="PZtJmmARqpZn-6BWuwpZ-29" style="edgeStyle=orthogonalEdgeStyle;rounded=0;sketch=1;hachureGap=4;jiggle=2;curveFitting=1;orthogonalLoop=1;jettySize=auto;html=1;fontFamily=Architects Daughter;fontSource=https%3A%2F%2Ffonts.googleapis.com%2Fcss%3Ffamily%3DArchitects%2BDaughter;endArrow=none;endFill=0;" parent="1" source="PZtJmmARqpZn-6BWuwpZ-18" target="PZtJmmARqpZn-6BWuwpZ-24" edge="1">
          <mxGeometry relative="1" as="geometry" />
        </mxCell>
        <mxCell id="PZtJmmARqpZn-6BWuwpZ-18" value="Cromosoma" style="whiteSpace=wrap;html=1;align=center;sketch=1;hachureGap=4;jiggle=2;curveFitting=1;fontFamily=Architects Daughter;fontSource=https%3A%2F%2Ffonts.googleapis.com%2Fcss%3Ffamily%3DArchitects%2BDaughter;" parent="1" vertex="1">
          <mxGeometry x="520" y="490" width="100" height="40" as="geometry" />
        </mxCell>
        <mxCell id="PZtJmmARqpZn-6BWuwpZ-21" style="rounded=0;sketch=1;hachureGap=4;jiggle=2;curveFitting=1;orthogonalLoop=1;jettySize=auto;html=1;fontFamily=Courier New;endArrow=none;endFill=0;" parent="1" source="PZtJmmARqpZn-6BWuwpZ-19" target="PZtJmmARqpZn-6BWuwpZ-18" edge="1">
          <mxGeometry relative="1" as="geometry" />
        </mxCell>
        <mxCell id="nFG6gQNWqiVOLWOZAv4C-53" value="1:1" style="edgeLabel;html=1;align=center;verticalAlign=middle;resizable=0;points=[];sketch=1;hachureGap=4;jiggle=2;curveFitting=1;fontFamily=Courier New;" parent="PZtJmmARqpZn-6BWuwpZ-21" vertex="1" connectable="0">
          <mxGeometry x="0.0733" y="1" relative="1" as="geometry">
            <mxPoint x="-1" as="offset" />
          </mxGeometry>
        </mxCell>
        <mxCell id="PZtJmmARqpZn-6BWuwpZ-31" style="rounded=0;sketch=1;hachureGap=4;jiggle=2;curveFitting=1;orthogonalLoop=1;jettySize=auto;html=1;fontFamily=Architects Daughter;fontSource=https%3A%2F%2Ffonts.googleapis.com%2Fcss%3Ffamily%3DArchitects%2BDaughter;endArrow=none;endFill=0;" parent="1" source="PZtJmmARqpZn-6BWuwpZ-19" target="PZtJmmARqpZn-6BWuwpZ-30" edge="1">
          <mxGeometry relative="1" as="geometry" />
        </mxCell>
        <mxCell id="PZtJmmARqpZn-6BWuwpZ-19" value="Cromosoma-Gen" style="shape=rhombus;perimeter=rhombusPerimeter;whiteSpace=wrap;html=1;align=center;sketch=1;hachureGap=4;jiggle=2;curveFitting=1;fontFamily=Architects Daughter;fontSource=https%3A%2F%2Ffonts.googleapis.com%2Fcss%3Ffamily%3DArchitects%2BDaughter;" parent="1" vertex="1">
          <mxGeometry x="510" y="370" width="120" height="60" as="geometry" />
        </mxCell>
        <mxCell id="PZtJmmARqpZn-6BWuwpZ-22" value="Identificador" style="ellipse;whiteSpace=wrap;html=1;align=center;fontStyle=4;sketch=1;hachureGap=4;jiggle=2;curveFitting=1;fontFamily=Architects Daughter;fontSource=https%3A%2F%2Ffonts.googleapis.com%2Fcss%3Ffamily%3DArchitects%2BDaughter;" parent="1" vertex="1">
          <mxGeometry x="700" y="420" width="100" height="40" as="geometry" />
        </mxCell>
        <mxCell id="PZtJmmARqpZn-6BWuwpZ-24" value="Nombre" style="ellipse;whiteSpace=wrap;html=1;align=center;sketch=1;hachureGap=4;jiggle=2;curveFitting=1;fontFamily=Architects Daughter;fontSource=https%3A%2F%2Ffonts.googleapis.com%2Fcss%3Ffamily%3DArchitects%2BDaughter;" parent="1" vertex="1">
          <mxGeometry x="720" y="490" width="100" height="40" as="geometry" />
        </mxCell>
        <mxCell id="PZtJmmARqpZn-6BWuwpZ-26" value="Especie" style="ellipse;whiteSpace=wrap;html=1;align=center;sketch=1;hachureGap=4;jiggle=2;curveFitting=1;fontFamily=Architects Daughter;fontSource=https%3A%2F%2Ffonts.googleapis.com%2Fcss%3Ffamily%3DArchitects%2BDaughter;" parent="1" vertex="1">
          <mxGeometry x="700" y="570" width="100" height="40" as="geometry" />
        </mxCell>
        <mxCell id="PZtJmmARqpZn-6BWuwpZ-30" value="Posicion" style="ellipse;whiteSpace=wrap;html=1;align=center;sketch=1;hachureGap=4;jiggle=2;curveFitting=1;fontFamily=Architects Daughter;fontSource=https%3A%2F%2Ffonts.googleapis.com%2Fcss%3Ffamily%3DArchitects%2BDaughter;" parent="1" vertex="1">
          <mxGeometry x="650" y="320" width="100" height="40" as="geometry" />
        </mxCell>
        <mxCell id="PZtJmmARqpZn-6BWuwpZ-36" value="Identificador" style="ellipse;whiteSpace=wrap;html=1;align=center;fontStyle=4;sketch=1;hachureGap=4;jiggle=2;curveFitting=1;fontFamily=Architects Daughter;fontSource=https%3A%2F%2Ffonts.googleapis.com%2Fcss%3Ffamily%3DArchitects%2BDaughter;" parent="1" vertex="1">
          <mxGeometry x="220" y="330" width="100" height="40" as="geometry" />
        </mxCell>
        <mxCell id="PZtJmmARqpZn-6BWuwpZ-38" value="Cadena" style="ellipse;whiteSpace=wrap;html=1;align=center;sketch=1;hachureGap=4;jiggle=2;curveFitting=1;fontFamily=Architects Daughter;fontSource=https%3A%2F%2Ffonts.googleapis.com%2Fcss%3Ffamily%3DArchitects%2BDaughter;" parent="1" vertex="1">
          <mxGeometry x="120" y="-320" width="100" height="40" as="geometry" />
        </mxCell>
        <mxCell id="PZtJmmARqpZn-6BWuwpZ-40" value="Identificador" style="ellipse;whiteSpace=wrap;html=1;align=center;fontStyle=4;sketch=1;hachureGap=4;jiggle=2;curveFitting=1;fontFamily=Architects Daughter;fontSource=https%3A%2F%2Ffonts.googleapis.com%2Fcss%3Ffamily%3DArchitects%2BDaughter;" parent="1" vertex="1">
          <mxGeometry x="-10" y="-340" width="100" height="50" as="geometry" />
        </mxCell>
        <mxCell id="PZtJmmARqpZn-6BWuwpZ-44" value="TIpo" style="ellipse;whiteSpace=wrap;html=1;align=center;sketch=1;hachureGap=4;jiggle=2;curveFitting=1;fontFamily=Architects Daughter;fontSource=https%3A%2F%2Ffonts.googleapis.com%2Fcss%3Ffamily%3DArchitects%2BDaughter;" parent="1" vertex="1">
          <mxGeometry x="550" y="50" width="100" height="40" as="geometry" />
        </mxCell>
        <mxCell id="PZtJmmARqpZn-6BWuwpZ-48" value="Direccion" style="ellipse;whiteSpace=wrap;html=1;align=center;sketch=1;hachureGap=4;jiggle=2;curveFitting=1;fontFamily=Architects Daughter;fontSource=https%3A%2F%2Ffonts.googleapis.com%2Fcss%3Ffamily%3DArchitects%2BDaughter;" parent="1" vertex="1">
          <mxGeometry x="170" y="-260" width="100" height="40" as="geometry" />
        </mxCell>
        <mxCell id="PZtJmmARqpZn-6BWuwpZ-50" style="rounded=0;sketch=1;hachureGap=4;jiggle=2;curveFitting=1;orthogonalLoop=1;jettySize=auto;html=1;entryX=0.067;entryY=0.55;entryDx=0;entryDy=0;entryPerimeter=0;fontFamily=Architects Daughter;fontSource=https%3A%2F%2Ffonts.googleapis.com%2Fcss%3Ffamily%3DArchitects%2BDaughter;endArrow=none;endFill=0;" parent="1" source="PZtJmmARqpZn-6BWuwpZ-2" target="PZtJmmARqpZn-6BWuwpZ-3" edge="1">
          <mxGeometry relative="1" as="geometry" />
        </mxCell>
        <mxCell id="nFG6gQNWqiVOLWOZAv4C-55" value="1:1" style="edgeLabel;html=1;align=center;verticalAlign=middle;resizable=0;points=[];sketch=1;hachureGap=4;jiggle=2;curveFitting=1;fontFamily=Courier New;" parent="PZtJmmARqpZn-6BWuwpZ-50" vertex="1" connectable="0">
          <mxGeometry x="-0.0663" y="2" relative="1" as="geometry">
            <mxPoint as="offset" />
          </mxGeometry>
        </mxCell>
        <mxCell id="PZtJmmARqpZn-6BWuwpZ-67" style="rounded=0;sketch=1;hachureGap=4;jiggle=2;curveFitting=1;orthogonalLoop=1;jettySize=auto;html=1;entryX=1;entryY=0.5;entryDx=0;entryDy=0;fontFamily=Architects Daughter;fontSource=https%3A%2F%2Ffonts.googleapis.com%2Fcss%3Ffamily%3DArchitects%2BDaughter;endArrow=none;endFill=0;exitX=0;exitY=0.5;exitDx=0;exitDy=0;" parent="1" source="nFG6gQNWqiVOLWOZAv4C-41" target="PZtJmmARqpZn-6BWuwpZ-11" edge="1">
          <mxGeometry relative="1" as="geometry">
            <mxPoint x="380" y="-130" as="sourcePoint" />
          </mxGeometry>
        </mxCell>
        <mxCell id="nFG6gQNWqiVOLWOZAv4C-61" value="0:1" style="edgeLabel;html=1;align=center;verticalAlign=middle;resizable=0;points=[];sketch=1;hachureGap=4;jiggle=2;curveFitting=1;fontFamily=Courier New;" parent="PZtJmmARqpZn-6BWuwpZ-67" vertex="1" connectable="0">
          <mxGeometry x="0.0454" relative="1" as="geometry">
            <mxPoint as="offset" />
          </mxGeometry>
        </mxCell>
        <mxCell id="PZtJmmARqpZn-6BWuwpZ-78" style="rounded=0;sketch=1;hachureGap=4;jiggle=2;curveFitting=1;orthogonalLoop=1;jettySize=auto;html=1;fontFamily=Architects Daughter;fontSource=https%3A%2F%2Ffonts.googleapis.com%2Fcss%3Ffamily%3DArchitects%2BDaughter;endArrow=none;endFill=0;exitX=1;exitY=0.25;exitDx=0;exitDy=0;" parent="1" source="nFG6gQNWqiVOLWOZAv4C-41" target="PZtJmmARqpZn-6BWuwpZ-76" edge="1">
          <mxGeometry relative="1" as="geometry" />
        </mxCell>
        <mxCell id="PZtJmmARqpZn-6BWuwpZ-57" style="rounded=0;sketch=1;hachureGap=4;jiggle=2;curveFitting=1;orthogonalLoop=1;jettySize=auto;html=1;fontFamily=Architects Daughter;fontSource=https%3A%2F%2Ffonts.googleapis.com%2Fcss%3Ffamily%3DArchitects%2BDaughter;endArrow=none;endFill=0;entryX=1;entryY=0.5;entryDx=0;entryDy=0;" parent="1" source="PZtJmmARqpZn-6BWuwpZ-56" target="nFG6gQNWqiVOLWOZAv4C-41" edge="1">
          <mxGeometry relative="1" as="geometry" />
        </mxCell>
        <mxCell id="PZtJmmARqpZn-6BWuwpZ-56" value="Posicion" style="ellipse;whiteSpace=wrap;html=1;align=center;sketch=1;hachureGap=4;jiggle=2;curveFitting=1;fontFamily=Architects Daughter;fontSource=https%3A%2F%2Ffonts.googleapis.com%2Fcss%3Ffamily%3DArchitects%2BDaughter;" parent="1" vertex="1">
          <mxGeometry x="550" y="-205" width="100" height="40" as="geometry" />
        </mxCell>
        <mxCell id="PZtJmmARqpZn-6BWuwpZ-58" value="Identificador" style="ellipse;whiteSpace=wrap;html=1;align=center;fontStyle=4;sketch=1;hachureGap=4;jiggle=2;curveFitting=1;fontFamily=Architects Daughter;fontSource=https%3A%2F%2Ffonts.googleapis.com%2Fcss%3Ffamily%3DArchitects%2BDaughter;" parent="1" vertex="1">
          <mxGeometry x="920" y="130" width="100" height="40" as="geometry" />
        </mxCell>
        <mxCell id="PZtJmmARqpZn-6BWuwpZ-60" value="TipoAnotacion" style="ellipse;whiteSpace=wrap;html=1;align=center;sketch=1;hachureGap=4;jiggle=2;curveFitting=1;fontFamily=Architects Daughter;fontSource=https%3A%2F%2Ffonts.googleapis.com%2Fcss%3Ffamily%3DArchitects%2BDaughter;" parent="1" vertex="1">
          <mxGeometry x="920" y="195" width="100" height="40" as="geometry" />
        </mxCell>
        <mxCell id="PZtJmmARqpZn-6BWuwpZ-63" style="rounded=0;sketch=1;hachureGap=4;jiggle=2;curveFitting=1;orthogonalLoop=1;jettySize=auto;html=1;entryX=1;entryY=0.75;entryDx=0;entryDy=0;fontFamily=Architects Daughter;fontSource=https%3A%2F%2Ffonts.googleapis.com%2Fcss%3Ffamily%3DArchitects%2BDaughter;endArrow=none;endFill=0;exitX=0;exitY=0.5;exitDx=0;exitDy=0;" parent="1" source="WIoP-Z5x5fmVM3cqrzwO-2" target="nFG6gQNWqiVOLWOZAv4C-41" edge="1">
          <mxGeometry relative="1" as="geometry">
            <mxPoint x="70" as="targetPoint" />
            <mxPoint x="570.8355548474742" y="-122.43315719127804" as="sourcePoint" />
          </mxGeometry>
        </mxCell>
        <mxCell id="WIoP-Z5x5fmVM3cqrzwO-6" value="0:N" style="edgeLabel;html=1;align=center;verticalAlign=middle;resizable=0;points=[];sketch=1;hachureGap=4;jiggle=2;curveFitting=1;fontFamily=Courier New;" vertex="1" connectable="0" parent="PZtJmmARqpZn-6BWuwpZ-63">
          <mxGeometry x="0.0251" y="-1" relative="1" as="geometry">
            <mxPoint as="offset" />
          </mxGeometry>
        </mxCell>
        <mxCell id="PZtJmmARqpZn-6BWuwpZ-76" value="Identificador" style="ellipse;whiteSpace=wrap;html=1;align=center;fontStyle=4;sketch=1;hachureGap=4;jiggle=2;curveFitting=1;fontFamily=Architects Daughter;fontSource=https%3A%2F%2Ffonts.googleapis.com%2Fcss%3Ffamily%3DArchitects%2BDaughter;" parent="1" vertex="1">
          <mxGeometry x="470" y="-300" width="100" height="40" as="geometry" />
        </mxCell>
        <mxCell id="PZtJmmARqpZn-6BWuwpZ-79" value="Descripcion" style="ellipse;whiteSpace=wrap;html=1;align=center;sketch=1;hachureGap=4;jiggle=2;curveFitting=1;fontFamily=Architects Daughter;fontSource=https%3A%2F%2Ffonts.googleapis.com%2Fcss%3Ffamily%3DArchitects%2BDaughter;" parent="1" vertex="1">
          <mxGeometry x="910" y="250" width="100" height="40" as="geometry" />
        </mxCell>
        <mxCell id="PZtJmmARqpZn-6BWuwpZ-87" value="" style="rounded=0;sketch=1;hachureGap=4;jiggle=2;curveFitting=1;orthogonalLoop=1;jettySize=auto;html=1;fontFamily=Architects Daughter;fontSource=https%3A%2F%2Ffonts.googleapis.com%2Fcss%3Ffamily%3DArchitects%2BDaughter;endArrow=none;endFill=0;" parent="1" source="PZtJmmARqpZn-6BWuwpZ-82" target="PZtJmmARqpZn-6BWuwpZ-9" edge="1">
          <mxGeometry relative="1" as="geometry" />
        </mxCell>
        <mxCell id="PZtJmmARqpZn-6BWuwpZ-82" value="Identificador" style="ellipse;whiteSpace=wrap;html=1;align=center;fontStyle=4;sketch=1;hachureGap=4;jiggle=2;curveFitting=1;fontFamily=Architects Daughter;fontSource=https%3A%2F%2Ffonts.googleapis.com%2Fcss%3Ffamily%3DArchitects%2BDaughter;" parent="1" vertex="1">
          <mxGeometry x="-90" y="-55" width="100" height="40" as="geometry" />
        </mxCell>
        <mxCell id="PZtJmmARqpZn-6BWuwpZ-88" style="rounded=0;sketch=1;hachureGap=4;jiggle=2;curveFitting=1;orthogonalLoop=1;jettySize=auto;html=1;entryX=0;entryY=0.25;entryDx=0;entryDy=0;fontFamily=Architects Daughter;fontSource=https%3A%2F%2Ffonts.googleapis.com%2Fcss%3Ffamily%3DArchitects%2BDaughter;endArrow=none;endFill=0;" parent="1" source="PZtJmmARqpZn-6BWuwpZ-84" target="PZtJmmARqpZn-6BWuwpZ-9" edge="1">
          <mxGeometry relative="1" as="geometry" />
        </mxCell>
        <mxCell id="PZtJmmARqpZn-6BWuwpZ-84" value="Titulo" style="ellipse;whiteSpace=wrap;html=1;align=center;sketch=1;hachureGap=4;jiggle=2;curveFitting=1;fontFamily=Architects Daughter;fontSource=https%3A%2F%2Ffonts.googleapis.com%2Fcss%3Ffamily%3DArchitects%2BDaughter;" parent="1" vertex="1">
          <mxGeometry x="-110" y="20" width="100" height="40" as="geometry" />
        </mxCell>
        <mxCell id="PZtJmmARqpZn-6BWuwpZ-89" style="rounded=0;sketch=1;hachureGap=4;jiggle=2;curveFitting=1;orthogonalLoop=1;jettySize=auto;html=1;entryX=0;entryY=0.5;entryDx=0;entryDy=0;fontFamily=Architects Daughter;fontSource=https%3A%2F%2Ffonts.googleapis.com%2Fcss%3Ffamily%3DArchitects%2BDaughter;endArrow=none;endFill=0;" parent="1" source="PZtJmmARqpZn-6BWuwpZ-85" target="PZtJmmARqpZn-6BWuwpZ-9" edge="1">
          <mxGeometry relative="1" as="geometry" />
        </mxCell>
        <mxCell id="PZtJmmARqpZn-6BWuwpZ-85" value="Fecha" style="ellipse;whiteSpace=wrap;html=1;align=center;sketch=1;hachureGap=4;jiggle=2;curveFitting=1;fontFamily=Architects Daughter;fontSource=https%3A%2F%2Ffonts.googleapis.com%2Fcss%3Ffamily%3DArchitects%2BDaughter;" parent="1" vertex="1">
          <mxGeometry x="-100" y="80" width="100" height="40" as="geometry" />
        </mxCell>
        <mxCell id="PZtJmmARqpZn-6BWuwpZ-90" style="rounded=0;sketch=1;hachureGap=4;jiggle=2;curveFitting=1;orthogonalLoop=1;jettySize=auto;html=1;fontFamily=Architects Daughter;fontSource=https%3A%2F%2Ffonts.googleapis.com%2Fcss%3Ffamily%3DArchitects%2BDaughter;endArrow=none;endFill=0;" parent="1" source="PZtJmmARqpZn-6BWuwpZ-86" target="PZtJmmARqpZn-6BWuwpZ-9" edge="1">
          <mxGeometry relative="1" as="geometry" />
        </mxCell>
        <mxCell id="PZtJmmARqpZn-6BWuwpZ-86" value="Referencia" style="ellipse;whiteSpace=wrap;html=1;align=center;sketch=1;hachureGap=4;jiggle=2;curveFitting=1;fontFamily=Architects Daughter;fontSource=https%3A%2F%2Ffonts.googleapis.com%2Fcss%3Ffamily%3DArchitects%2BDaughter;" parent="1" vertex="1">
          <mxGeometry x="-110" y="146" width="100" height="40" as="geometry" />
        </mxCell>
        <mxCell id="PZtJmmARqpZn-6BWuwpZ-95" style="rounded=0;sketch=1;hachureGap=4;jiggle=2;curveFitting=1;orthogonalLoop=1;jettySize=auto;html=1;fontFamily=Architects Daughter;fontSource=https%3A%2F%2Ffonts.googleapis.com%2Fcss%3Ffamily%3DArchitects%2BDaughter;endArrow=none;endFill=0;entryX=0.149;entryY=1.009;entryDx=0;entryDy=0;entryPerimeter=0;" parent="1" source="PZtJmmARqpZn-6BWuwpZ-93" target="nFG6gQNWqiVOLWOZAv4C-41" edge="1">
          <mxGeometry relative="1" as="geometry">
            <mxPoint x="380" y="40" as="targetPoint" />
          </mxGeometry>
        </mxCell>
        <mxCell id="nFG6gQNWqiVOLWOZAv4C-71" value="0:N" style="edgeLabel;html=1;align=center;verticalAlign=middle;resizable=0;points=[];sketch=1;hachureGap=4;jiggle=2;curveFitting=1;fontFamily=Courier New;" parent="PZtJmmARqpZn-6BWuwpZ-95" vertex="1" connectable="0">
          <mxGeometry x="-0.0019" y="1" relative="1" as="geometry">
            <mxPoint as="offset" />
          </mxGeometry>
        </mxCell>
        <mxCell id="nFG6gQNWqiVOLWOZAv4C-1" value="&lt;font face=&quot;Courier New&quot;&gt;1:N&lt;/font&gt;" style="text;html=1;align=center;verticalAlign=middle;whiteSpace=wrap;rounded=0;fontFamily=Architects Daughter;fontSource=https%3A%2F%2Ffonts.googleapis.com%2Fcss%3Ffamily%3DArchitects%2BDaughter;" parent="1" vertex="1">
          <mxGeometry x="620" y="250" width="60" height="30" as="geometry" />
        </mxCell>
        <mxCell id="nFG6gQNWqiVOLWOZAv4C-3" value="&lt;font face=&quot;Courier New&quot;&gt;1:N&lt;/font&gt;" style="text;html=1;align=center;verticalAlign=middle;whiteSpace=wrap;rounded=0;fontFamily=Architects Daughter;fontSource=https%3A%2F%2Ffonts.googleapis.com%2Fcss%3Ffamily%3DArchitects%2BDaughter;" parent="1" vertex="1">
          <mxGeometry x="350" y="126" width="60" height="30" as="geometry" />
        </mxCell>
        <mxCell id="nFG6gQNWqiVOLWOZAv4C-6" value="&lt;font face=&quot;Courier New&quot;&gt;1:N&lt;/font&gt;" style="text;html=1;align=center;verticalAlign=middle;whiteSpace=wrap;rounded=0;fontFamily=Architects Daughter;fontSource=https%3A%2F%2Ffonts.googleapis.com%2Fcss%3Ffamily%3DArchitects%2BDaughter;" parent="1" vertex="1">
          <mxGeometry x="550" y="350" width="60" height="30" as="geometry" />
        </mxCell>
        <mxCell id="nFG6gQNWqiVOLWOZAv4C-7" value="" style="group" parent="1" vertex="1" connectable="0">
          <mxGeometry x="180" y="146" width="120" height="84" as="geometry" />
        </mxCell>
        <mxCell id="PZtJmmARqpZn-6BWuwpZ-91" value="Estudio-Gen" style="shape=rhombus;perimeter=rhombusPerimeter;whiteSpace=wrap;html=1;align=center;sketch=1;hachureGap=4;jiggle=2;curveFitting=1;fontFamily=Architects Daughter;fontSource=https%3A%2F%2Ffonts.googleapis.com%2Fcss%3Ffamily%3DArchitects%2BDaughter;" parent="nFG6gQNWqiVOLWOZAv4C-7" vertex="1">
          <mxGeometry width="120" height="60" as="geometry" />
        </mxCell>
        <mxCell id="nFG6gQNWqiVOLWOZAv4C-4" value="&lt;font face=&quot;Courier New&quot;&gt;N:M&lt;/font&gt;" style="text;html=1;align=center;verticalAlign=middle;whiteSpace=wrap;rounded=0;fontFamily=Architects Daughter;fontSource=https%3A%2F%2Ffonts.googleapis.com%2Fcss%3Ffamily%3DArchitects%2BDaughter;" parent="nFG6gQNWqiVOLWOZAv4C-7" vertex="1">
          <mxGeometry x="30" y="54" width="60" height="30" as="geometry" />
        </mxCell>
        <mxCell id="nFG6gQNWqiVOLWOZAv4C-33" value="" style="group" parent="1" vertex="1" connectable="0">
          <mxGeometry x="130" y="-70" width="130" height="70" as="geometry" />
        </mxCell>
        <mxCell id="PZtJmmARqpZn-6BWuwpZ-93" value="Estudio-Variante" style="shape=rhombus;perimeter=rhombusPerimeter;whiteSpace=wrap;html=1;align=center;sketch=1;hachureGap=4;jiggle=2;curveFitting=1;fontFamily=Architects Daughter;fontSource=https%3A%2F%2Ffonts.googleapis.com%2Fcss%3Ffamily%3DArchitects%2BDaughter;" parent="nFG6gQNWqiVOLWOZAv4C-33" vertex="1">
          <mxGeometry x="10" width="120" height="60" as="geometry" />
        </mxCell>
        <mxCell id="nFG6gQNWqiVOLWOZAv4C-5" value="&lt;font face=&quot;Courier New&quot;&gt;N:M&lt;/font&gt;" style="text;html=1;align=center;verticalAlign=middle;whiteSpace=wrap;rounded=0;fontFamily=Architects Daughter;fontSource=https%3A%2F%2Ffonts.googleapis.com%2Fcss%3Ffamily%3DArchitects%2BDaughter;" parent="nFG6gQNWqiVOLWOZAv4C-33" vertex="1">
          <mxGeometry x="40" y="60" width="60" height="25" as="geometry" />
        </mxCell>
        <mxCell id="nFG6gQNWqiVOLWOZAv4C-47" value="" style="rounded=0;sketch=1;hachureGap=4;jiggle=2;curveFitting=1;orthogonalLoop=1;jettySize=auto;html=1;fontFamily=Architects Daughter;fontSource=https%3A%2F%2Ffonts.googleapis.com%2Fcss%3Ffamily%3DArchitects%2BDaughter;entryX=1;entryY=0.5;entryDx=0;entryDy=0;endArrow=none;endFill=0;" parent="1" source="nFG6gQNWqiVOLWOZAv4C-40" target="nFG6gQNWqiVOLWOZAv4C-41" edge="1">
          <mxGeometry relative="1" as="geometry" />
        </mxCell>
        <mxCell id="nFG6gQNWqiVOLWOZAv4C-40" value="nombre" style="ellipse;whiteSpace=wrap;html=1;align=center;sketch=1;hachureGap=4;jiggle=2;curveFitting=1;fontFamily=Architects Daughter;fontSource=https%3A%2F%2Ffonts.googleapis.com%2Fcss%3Ffamily%3DArchitects%2BDaughter;" parent="1" vertex="1">
          <mxGeometry x="540" y="-260" width="100" height="40" as="geometry" />
        </mxCell>
        <mxCell id="vLm5K6zsSryO9WKZu8Rw-18" style="rounded=0;sketch=1;hachureGap=4;jiggle=2;curveFitting=1;orthogonalLoop=1;jettySize=auto;html=1;entryX=0.5;entryY=0;entryDx=0;entryDy=0;fontFamily=Architects Daughter;fontSource=https%3A%2F%2Ffonts.googleapis.com%2Fcss%3Ffamily%3DArchitects%2BDaughter;endArrow=none;endFill=0;" parent="1" source="nFG6gQNWqiVOLWOZAv4C-41" target="vLm5K6zsSryO9WKZu8Rw-16" edge="1">
          <mxGeometry relative="1" as="geometry" />
        </mxCell>
        <mxCell id="vLm5K6zsSryO9WKZu8Rw-21" value="0:N" style="edgeLabel;html=1;align=center;verticalAlign=middle;resizable=0;points=[];sketch=1;hachureGap=4;jiggle=2;curveFitting=1;fontFamily=Courier New;" parent="vLm5K6zsSryO9WKZu8Rw-18" vertex="1" connectable="0">
          <mxGeometry x="-0.3007" y="1" relative="1" as="geometry">
            <mxPoint x="-1" y="12" as="offset" />
          </mxGeometry>
        </mxCell>
        <mxCell id="nFG6gQNWqiVOLWOZAv4C-41" value="Variante" style="shape=ext;margin=3;double=1;whiteSpace=wrap;html=1;align=center;sketch=1;hachureGap=4;jiggle=2;curveFitting=1;fontFamily=Architects Daughter;fontSource=https%3A%2F%2Ffonts.googleapis.com%2Fcss%3Ffamily%3DArchitects%2BDaughter;" parent="1" vertex="1">
          <mxGeometry x="384" y="-180" width="100" height="40" as="geometry" />
        </mxCell>
        <mxCell id="nFG6gQNWqiVOLWOZAv4C-51" value="" style="group" parent="1" vertex="1" connectable="0">
          <mxGeometry x="190" y="-190" width="125" height="70" as="geometry" />
        </mxCell>
        <mxCell id="PZtJmmARqpZn-6BWuwpZ-11" value="Variante-Secuencia" style="shape=rhombus;perimeter=rhombusPerimeter;whiteSpace=wrap;html=1;align=center;sketch=1;hachureGap=4;jiggle=2;curveFitting=1;fontFamily=Architects Daughter;fontSource=https%3A%2F%2Ffonts.googleapis.com%2Fcss%3Ffamily%3DArchitects%2BDaughter;" parent="nFG6gQNWqiVOLWOZAv4C-51" vertex="1">
          <mxGeometry x="5" width="120" height="60" as="geometry" />
        </mxCell>
        <mxCell id="nFG6gQNWqiVOLWOZAv4C-36" value="&lt;font face=&quot;Courier New&quot;&gt;1:1&lt;/font&gt;" style="text;html=1;align=center;verticalAlign=middle;whiteSpace=wrap;rounded=0;fontFamily=Architects Daughter;fontSource=https%3A%2F%2Ffonts.googleapis.com%2Fcss%3Ffamily%3DArchitects%2BDaughter;" parent="nFG6gQNWqiVOLWOZAv4C-51" vertex="1">
          <mxGeometry y="40" width="60" height="30" as="geometry" />
        </mxCell>
        <mxCell id="nFG6gQNWqiVOLWOZAv4C-64" value="" style="rounded=0;sketch=1;hachureGap=4;jiggle=2;curveFitting=1;orthogonalLoop=1;jettySize=auto;html=1;fontFamily=Architects Daughter;fontSource=https%3A%2F%2Ffonts.googleapis.com%2Fcss%3Ffamily%3DArchitects%2BDaughter;dashed=1;endArrow=none;endFill=0;" parent="1" source="nFG6gQNWqiVOLWOZAv4C-63" target="PZtJmmARqpZn-6BWuwpZ-44" edge="1">
          <mxGeometry relative="1" as="geometry" />
        </mxCell>
        <mxCell id="nFG6gQNWqiVOLWOZAv4C-63" value="Alelo wt (de referencia,) o mutante" style="shape=note;size=20;whiteSpace=wrap;html=1;sketch=1;hachureGap=4;jiggle=2;curveFitting=1;fontFamily=Architects Daughter;fontSource=https%3A%2F%2Ffonts.googleapis.com%2Fcss%3Ffamily%3DArchitects%2BDaughter;fillColor=#fff2cc;strokeColor=#d6b656;" parent="1" vertex="1">
          <mxGeometry x="760" y="-60" width="80" height="90" as="geometry" />
        </mxCell>
        <mxCell id="nFG6gQNWqiVOLWOZAv4C-65" value="&lt;div&gt;Las VARIANTES, en nuestro modelo, se refieren a las distintas SECUENCIAS. Así, a cada variante es variante de una secuencia, y no tienen sentido sin ella: es una entidad débil..&lt;/div&gt;&lt;div&gt;&lt;br&gt;&lt;/div&gt;&lt;div&gt;Cada variante puede ser la variante identificada como&amp;nbsp; referencia, o una variante sobre esta.. Esto se identifica a través del campo TipoVariante. Además, la variante tiene un campo &quot;Posición&quot; en la que identifica en qué posicion de la secuencia se encuentra la modificación. Esta Posicion puede ser NULL, en el caso de variantes de referencia&lt;br&gt;&lt;/div&gt;&lt;div&gt;&lt;br&gt;&lt;/div&gt;&lt;div&gt;Para simplificar, vamos a considerar que cada variante coresponde a un cambio único en una secuencia, aunque en el mundo real se trataría de conjuntos de cambios.&lt;/div&gt;&lt;div&gt;&lt;br&gt;&lt;/div&gt;&lt;div&gt;También puede haber secuencias que no estén relacionadas con ninguna variante, bien porque son secuencias no correlacionadas con genes, o bien porque aún se desconoce esta relación.&lt;/div&gt;&lt;div&gt;&lt;br&gt;&lt;/div&gt;&lt;div&gt;Un ALELO se compone de un grupo de variantes (una o más), y por tanto de secuencias..&lt;br&gt;&lt;/div&gt;&lt;div&gt;Pueden existir variantes que no se relacionen con un alelo, ya que no están relacionadas con Genes (DNA estructural,&amp;nbsp; secuencias regulatorias, etc) o que dicha relación aún no se haya podido establecer.&lt;/div&gt;&lt;div&gt;También se permite la definición de alelos que no tengan relacionada ninguna secuencia. Puede tratarse de alelos de un gen que se conocen por su efecto biológico, pero que aún no se hayan identificado las variantes de secuencia que lo componen-&lt;/div&gt;&lt;div&gt;&lt;br&gt;&lt;/div&gt;&lt;div&gt;Cada GEN tiene uno (wt) o varios alelos.. El ALEO es de un GEN, por tanto, es una entidad débil.&lt;/div&gt;&lt;div&gt;&lt;br&gt;&lt;div&gt;&lt;br&gt;&lt;/div&gt;&lt;/div&gt;" style="shape=note;size=20;whiteSpace=wrap;html=1;sketch=1;hachureGap=4;jiggle=2;curveFitting=1;fontFamily=Architects Daughter;fontSource=https%3A%2F%2Ffonts.googleapis.com%2Fcss%3Ffamily%3DArchitects%2BDaughter;fillColor=#fff2cc;strokeColor=#d6b656;" parent="1" vertex="1">
          <mxGeometry x="-520" y="-80" width="360" height="610" as="geometry" />
        </mxCell>
        <mxCell id="vLm5K6zsSryO9WKZu8Rw-2" style="rounded=0;sketch=1;hachureGap=4;jiggle=2;curveFitting=1;orthogonalLoop=1;jettySize=auto;html=1;exitX=0.5;exitY=0;exitDx=0;exitDy=0;entryX=0.25;entryY=1;entryDx=0;entryDy=0;fontFamily=Architects Daughter;fontSource=https%3A%2F%2Ffonts.googleapis.com%2Fcss%3Ffamily%3DArchitects%2BDaughter;endArrow=none;endFill=0;" parent="1" source="vLm5K6zsSryO9WKZu8Rw-1" target="PZtJmmARqpZn-6BWuwpZ-2" edge="1">
          <mxGeometry relative="1" as="geometry" />
        </mxCell>
        <mxCell id="vLm5K6zsSryO9WKZu8Rw-1" value="Nombre" style="ellipse;whiteSpace=wrap;html=1;align=center;sketch=1;hachureGap=4;jiggle=2;curveFitting=1;fontFamily=Architects Daughter;fontSource=https%3A%2F%2Ffonts.googleapis.com%2Fcss%3Ffamily%3DArchitects%2BDaughter;" parent="1" vertex="1">
          <mxGeometry x="260" y="390" width="100" height="40" as="geometry" />
        </mxCell>
        <mxCell id="vLm5K6zsSryO9WKZu8Rw-9" style="rounded=0;sketch=1;hachureGap=4;jiggle=2;curveFitting=1;orthogonalLoop=1;jettySize=auto;html=1;entryX=0;entryY=0.5;entryDx=0;entryDy=0;fontFamily=Architects Daughter;fontSource=https%3A%2F%2Ffonts.googleapis.com%2Fcss%3Ffamily%3DArchitects%2BDaughter;endArrow=none;endFill=0;exitX=1;exitY=0.25;exitDx=0;exitDy=0;" parent="1" source="vLm5K6zsSryO9WKZu8Rw-6" target="vLm5K6zsSryO9WKZu8Rw-8" edge="1">
          <mxGeometry relative="1" as="geometry" />
        </mxCell>
        <mxCell id="vLm5K6zsSryO9WKZu8Rw-15" style="rounded=0;sketch=1;hachureGap=4;jiggle=2;curveFitting=1;orthogonalLoop=1;jettySize=auto;html=1;entryX=0;entryY=0.5;entryDx=0;entryDy=0;fontFamily=Architects Daughter;fontSource=https%3A%2F%2Ffonts.googleapis.com%2Fcss%3Ffamily%3DArchitects%2BDaughter;endArrow=none;endFill=0;exitX=1;exitY=0.5;exitDx=0;exitDy=0;" parent="1" source="vLm5K6zsSryO9WKZu8Rw-6" target="vLm5K6zsSryO9WKZu8Rw-14" edge="1">
          <mxGeometry relative="1" as="geometry" />
        </mxCell>
        <mxCell id="vLm5K6zsSryO9WKZu8Rw-17" style="rounded=0;sketch=1;hachureGap=4;jiggle=2;curveFitting=1;orthogonalLoop=1;jettySize=auto;html=1;fontFamily=Architects Daughter;fontSource=https%3A%2F%2Ffonts.googleapis.com%2Fcss%3Ffamily%3DArchitects%2BDaughter;endArrow=none;endFill=0;" parent="1" source="vLm5K6zsSryO9WKZu8Rw-6" target="vLm5K6zsSryO9WKZu8Rw-16" edge="1">
          <mxGeometry relative="1" as="geometry" />
        </mxCell>
        <mxCell id="vLm5K6zsSryO9WKZu8Rw-20" value="0:1" style="edgeLabel;html=1;align=center;verticalAlign=middle;resizable=0;points=[];sketch=1;hachureGap=4;jiggle=2;curveFitting=1;fontFamily=Courier New;" parent="vLm5K6zsSryO9WKZu8Rw-17" vertex="1" connectable="0">
          <mxGeometry x="0.2046" y="2" relative="1" as="geometry">
            <mxPoint as="offset" />
          </mxGeometry>
        </mxCell>
        <mxCell id="vLm5K6zsSryO9WKZu8Rw-8" value="Identificador" style="ellipse;whiteSpace=wrap;html=1;align=center;fontStyle=4;sketch=1;hachureGap=4;jiggle=2;curveFitting=1;fontFamily=Architects Daughter;fontSource=https%3A%2F%2Ffonts.googleapis.com%2Fcss%3Ffamily%3DArchitects%2BDaughter;" parent="1" vertex="1">
          <mxGeometry x="530" y="-50" width="100" height="40" as="geometry" />
        </mxCell>
        <mxCell id="vLm5K6zsSryO9WKZu8Rw-10" value="Descripcion" style="ellipse;whiteSpace=wrap;html=1;align=center;sketch=1;hachureGap=4;jiggle=2;curveFitting=1;fontFamily=Architects Daughter;fontSource=https%3A%2F%2Ffonts.googleapis.com%2Fcss%3Ffamily%3DArchitects%2BDaughter;" parent="1" vertex="1">
          <mxGeometry x="550" y="110" width="100" height="40" as="geometry" />
        </mxCell>
        <mxCell id="vLm5K6zsSryO9WKZu8Rw-11" style="rounded=0;sketch=1;hachureGap=4;jiggle=2;curveFitting=1;orthogonalLoop=1;jettySize=auto;html=1;entryX=-0.016;entryY=0.38;entryDx=0;entryDy=0;entryPerimeter=0;fontFamily=Architects Daughter;fontSource=https%3A%2F%2Ffonts.googleapis.com%2Fcss%3Ffamily%3DArchitects%2BDaughter;endArrow=none;endFill=0;" parent="1" source="vLm5K6zsSryO9WKZu8Rw-6" target="vLm5K6zsSryO9WKZu8Rw-10" edge="1">
          <mxGeometry relative="1" as="geometry" />
        </mxCell>
        <mxCell id="vLm5K6zsSryO9WKZu8Rw-12" value="Breve descripcion del alelo. y su efecto: dominancia, impacto biológico, efecto clinico..." style="shape=note;size=20;whiteSpace=wrap;html=1;sketch=1;hachureGap=4;jiggle=2;curveFitting=1;fontFamily=Architects Daughter;fontSource=https%3A%2F%2Ffonts.googleapis.com%2Fcss%3Ffamily%3DArchitects%2BDaughter;fillColor=#fff2cc;strokeColor=#d6b656;" parent="1" vertex="1">
          <mxGeometry x="680" y="80" width="130" height="100" as="geometry" />
        </mxCell>
        <mxCell id="vLm5K6zsSryO9WKZu8Rw-13" value="" style="rounded=0;sketch=1;hachureGap=4;jiggle=2;curveFitting=1;orthogonalLoop=1;jettySize=auto;html=1;fontFamily=Architects Daughter;fontSource=https%3A%2F%2Ffonts.googleapis.com%2Fcss%3Ffamily%3DArchitects%2BDaughter;dashed=1;endArrow=none;endFill=0;entryX=1;entryY=0.5;entryDx=0;entryDy=0;" parent="1" source="vLm5K6zsSryO9WKZu8Rw-12" target="vLm5K6zsSryO9WKZu8Rw-10" edge="1">
          <mxGeometry relative="1" as="geometry">
            <mxPoint x="700" y="-6" as="sourcePoint" />
            <mxPoint x="633" y="25" as="targetPoint" />
          </mxGeometry>
        </mxCell>
        <mxCell id="vLm5K6zsSryO9WKZu8Rw-14" value="nombre" style="ellipse;whiteSpace=wrap;html=1;align=center;sketch=1;hachureGap=4;jiggle=2;curveFitting=1;fontFamily=Architects Daughter;fontSource=https%3A%2F%2Ffonts.googleapis.com%2Fcss%3Ffamily%3DArchitects%2BDaughter;" parent="1" vertex="1">
          <mxGeometry x="530" width="100" height="40" as="geometry" />
        </mxCell>
        <mxCell id="vLm5K6zsSryO9WKZu8Rw-16" value="Alelo-Variantes" style="shape=rhombus;perimeter=rhombusPerimeter;whiteSpace=wrap;html=1;align=center;sketch=1;hachureGap=4;jiggle=2;curveFitting=1;fontFamily=Architects Daughter;fontSource=https%3A%2F%2Ffonts.googleapis.com%2Fcss%3Ffamily%3DArchitects%2BDaughter;" parent="1" vertex="1">
          <mxGeometry x="374" y="-60" width="120" height="60" as="geometry" />
        </mxCell>
        <mxCell id="vLm5K6zsSryO9WKZu8Rw-19" value="&lt;font face=&quot;Courier New&quot;&gt;1:N&lt;/font&gt;" style="text;html=1;align=center;verticalAlign=middle;whiteSpace=wrap;rounded=0;fontFamily=Architects Daughter;fontSource=https%3A%2F%2Ffonts.googleapis.com%2Fcss%3Ffamily%3DArchitects%2BDaughter;" parent="1" vertex="1">
          <mxGeometry x="340" y="-30" width="60" height="30" as="geometry" />
        </mxCell>
        <mxCell id="vLm5K6zsSryO9WKZu8Rw-6" value="Alelo" style="shape=ext;margin=3;double=1;whiteSpace=wrap;html=1;align=center;sketch=1;hachureGap=4;jiggle=2;curveFitting=1;fontFamily=Architects Daughter;fontSource=https%3A%2F%2Ffonts.googleapis.com%2Fcss%3Ffamily%3DArchitects%2BDaughter;" parent="1" vertex="1">
          <mxGeometry x="390" y="40" width="100" height="40" as="geometry" />
        </mxCell>
        <mxCell id="vLm5K6zsSryO9WKZu8Rw-24" value="&lt;font face=&quot;Courier New&quot;&gt;0:N&lt;/font&gt;" style="edgeStyle=orthogonalEdgeStyle;rounded=0;sketch=1;hachureGap=4;jiggle=2;curveFitting=1;orthogonalLoop=1;jettySize=auto;html=1;entryX=0.454;entryY=0.946;entryDx=0;entryDy=0;entryPerimeter=0;fontFamily=Architects Daughter;fontSource=https%3A%2F%2Ffonts.googleapis.com%2Fcss%3Ffamily%3DArchitects%2BDaughter;endArrow=none;endFill=0;" parent="1" source="PZtJmmARqpZn-6BWuwpZ-6" target="vLm5K6zsSryO9WKZu8Rw-6" edge="1">
          <mxGeometry relative="1" as="geometry" />
        </mxCell>
        <mxCell id="WIoP-Z5x5fmVM3cqrzwO-11" style="rounded=0;sketch=1;hachureGap=4;jiggle=2;curveFitting=1;orthogonalLoop=1;jettySize=auto;html=1;fontFamily=Architects Daughter;fontSource=https%3A%2F%2Ffonts.googleapis.com%2Fcss%3Ffamily%3DArchitects%2BDaughter;endArrow=none;endFill=0;" edge="1" parent="1" source="WIoP-Z5x5fmVM3cqrzwO-1" target="WIoP-Z5x5fmVM3cqrzwO-10">
          <mxGeometry relative="1" as="geometry" />
        </mxCell>
        <mxCell id="WIoP-Z5x5fmVM3cqrzwO-13" style="rounded=0;sketch=1;hachureGap=4;jiggle=2;curveFitting=1;orthogonalLoop=1;jettySize=auto;html=1;exitX=0.5;exitY=0;exitDx=0;exitDy=0;fontFamily=Architects Daughter;fontSource=https%3A%2F%2Ffonts.googleapis.com%2Fcss%3Ffamily%3DArchitects%2BDaughter;endArrow=none;endFill=0;" edge="1" parent="1" source="WIoP-Z5x5fmVM3cqrzwO-1" target="WIoP-Z5x5fmVM3cqrzwO-12">
          <mxGeometry relative="1" as="geometry" />
        </mxCell>
        <mxCell id="WIoP-Z5x5fmVM3cqrzwO-1" value="TipoVariante" style="rounded=1;arcSize=10;whiteSpace=wrap;html=1;align=center;sketch=1;hachureGap=4;jiggle=2;curveFitting=1;fontFamily=Architects Daughter;fontSource=https%3A%2F%2Ffonts.googleapis.com%2Fcss%3Ffamily%3DArchitects%2BDaughter;" vertex="1" parent="1">
          <mxGeometry x="750" y="-180" width="100" height="40" as="geometry" />
        </mxCell>
        <mxCell id="WIoP-Z5x5fmVM3cqrzwO-3" style="rounded=0;sketch=1;hachureGap=4;jiggle=2;curveFitting=1;orthogonalLoop=1;jettySize=auto;html=1;fontFamily=Architects Daughter;fontSource=https%3A%2F%2Ffonts.googleapis.com%2Fcss%3Ffamily%3DArchitects%2BDaughter;entryX=0;entryY=0.5;entryDx=0;entryDy=0;endArrow=none;endFill=0;" edge="1" parent="1" source="WIoP-Z5x5fmVM3cqrzwO-2" target="WIoP-Z5x5fmVM3cqrzwO-1">
          <mxGeometry relative="1" as="geometry" />
        </mxCell>
        <mxCell id="WIoP-Z5x5fmVM3cqrzwO-5" value="1:1" style="edgeLabel;html=1;align=center;verticalAlign=middle;resizable=0;points=[];sketch=1;hachureGap=4;jiggle=2;curveFitting=1;fontFamily=Courier New;" vertex="1" connectable="0" parent="WIoP-Z5x5fmVM3cqrzwO-3">
          <mxGeometry x="0.1888" y="3" relative="1" as="geometry">
            <mxPoint as="offset" />
          </mxGeometry>
        </mxCell>
        <mxCell id="WIoP-Z5x5fmVM3cqrzwO-2" value="Es de tipo" style="shape=rhombus;perimeter=rhombusPerimeter;whiteSpace=wrap;html=1;align=center;sketch=1;hachureGap=4;jiggle=2;curveFitting=1;fontFamily=Architects Daughter;fontSource=https%3A%2F%2Ffonts.googleapis.com%2Fcss%3Ffamily%3DArchitects%2BDaughter;" vertex="1" parent="1">
          <mxGeometry x="580" y="-140" width="120" height="60" as="geometry" />
        </mxCell>
        <mxCell id="WIoP-Z5x5fmVM3cqrzwO-4" value="&lt;font face=&quot;Courier New&quot;&gt;1:N&lt;/font&gt;" style="text;html=1;align=center;verticalAlign=middle;whiteSpace=wrap;rounded=0;fontFamily=Architects Daughter;fontSource=https%3A%2F%2Ffonts.googleapis.com%2Fcss%3Ffamily%3DArchitects%2BDaughter;" vertex="1" parent="1">
          <mxGeometry x="650" y="-100" width="60" height="30" as="geometry" />
        </mxCell>
        <mxCell id="WIoP-Z5x5fmVM3cqrzwO-10" value="identificador" style="ellipse;whiteSpace=wrap;html=1;align=center;fontStyle=4;sketch=1;hachureGap=4;jiggle=2;curveFitting=1;fontFamily=Architects Daughter;fontSource=https%3A%2F%2Ffonts.googleapis.com%2Fcss%3Ffamily%3DArchitects%2BDaughter;" vertex="1" parent="1">
          <mxGeometry x="690" y="-270" width="100" height="40" as="geometry" />
        </mxCell>
        <mxCell id="WIoP-Z5x5fmVM3cqrzwO-12" value="descripcion" style="ellipse;whiteSpace=wrap;html=1;align=center;sketch=1;hachureGap=4;jiggle=2;curveFitting=1;fontFamily=Architects Daughter;fontSource=https%3A%2F%2Ffonts.googleapis.com%2Fcss%3Ffamily%3DArchitects%2BDaughter;" vertex="1" parent="1">
          <mxGeometry x="800" y="-270" width="100" height="40" as="geometry" />
        </mxCell>
        <mxCell id="WIoP-Z5x5fmVM3cqrzwO-14" style="rounded=0;sketch=1;hachureGap=4;jiggle=2;curveFitting=1;orthogonalLoop=1;jettySize=auto;html=1;fontFamily=Architects Daughter;fontSource=https%3A%2F%2Ffonts.googleapis.com%2Fcss%3Ffamily%3DArchitects%2BDaughter;endArrow=none;endFill=0;" edge="1" parent="1" source="WIoP-Z5x5fmVM3cqrzwO-16" target="WIoP-Z5x5fmVM3cqrzwO-18">
          <mxGeometry relative="1" as="geometry" />
        </mxCell>
        <mxCell id="WIoP-Z5x5fmVM3cqrzwO-15" style="rounded=0;sketch=1;hachureGap=4;jiggle=2;curveFitting=1;orthogonalLoop=1;jettySize=auto;html=1;exitX=0.5;exitY=0;exitDx=0;exitDy=0;fontFamily=Architects Daughter;fontSource=https%3A%2F%2Ffonts.googleapis.com%2Fcss%3Ffamily%3DArchitects%2BDaughter;endArrow=none;endFill=0;" edge="1" parent="1" source="WIoP-Z5x5fmVM3cqrzwO-16" target="WIoP-Z5x5fmVM3cqrzwO-19">
          <mxGeometry relative="1" as="geometry" />
        </mxCell>
        <mxCell id="WIoP-Z5x5fmVM3cqrzwO-22" value="" style="edgeStyle=orthogonalEdgeStyle;rounded=0;sketch=1;hachureGap=4;jiggle=2;curveFitting=1;orthogonalLoop=1;jettySize=auto;html=1;fontFamily=Architects Daughter;fontSource=https%3A%2F%2Ffonts.googleapis.com%2Fcss%3Ffamily%3DArchitects%2BDaughter;endArrow=none;endFill=0;" edge="1" parent="1" source="WIoP-Z5x5fmVM3cqrzwO-16" target="WIoP-Z5x5fmVM3cqrzwO-20">
          <mxGeometry relative="1" as="geometry" />
        </mxCell>
        <mxCell id="WIoP-Z5x5fmVM3cqrzwO-23" value="1:1" style="edgeLabel;html=1;align=center;verticalAlign=middle;resizable=0;points=[];sketch=1;hachureGap=4;jiggle=2;curveFitting=1;fontFamily=Courier New;" vertex="1" connectable="0" parent="WIoP-Z5x5fmVM3cqrzwO-22">
          <mxGeometry x="-0.0221" y="-3" relative="1" as="geometry">
            <mxPoint as="offset" />
          </mxGeometry>
        </mxCell>
        <mxCell id="WIoP-Z5x5fmVM3cqrzwO-16" value="TipoSecuencia" style="rounded=1;arcSize=10;whiteSpace=wrap;html=1;align=center;sketch=1;hachureGap=4;jiggle=2;curveFitting=1;fontFamily=Architects Daughter;fontSource=https%3A%2F%2Ffonts.googleapis.com%2Fcss%3Ffamily%3DArchitects%2BDaughter;" vertex="1" parent="1">
          <mxGeometry x="-310" y="-180" width="100" height="40" as="geometry" />
        </mxCell>
        <mxCell id="WIoP-Z5x5fmVM3cqrzwO-17" value="1:N" style="edgeLabel;html=1;align=center;verticalAlign=middle;resizable=0;points=[];sketch=1;hachureGap=4;jiggle=2;curveFitting=1;fontFamily=Courier New;" vertex="1" connectable="0" parent="1">
          <mxGeometry x="-90.00398999196955" y="-109.99810799644884" as="geometry">
            <mxPoint x="3" y="-6" as="offset" />
          </mxGeometry>
        </mxCell>
        <mxCell id="WIoP-Z5x5fmVM3cqrzwO-18" value="identificador" style="ellipse;whiteSpace=wrap;html=1;align=center;fontStyle=4;sketch=1;hachureGap=4;jiggle=2;curveFitting=1;fontFamily=Architects Daughter;fontSource=https%3A%2F%2Ffonts.googleapis.com%2Fcss%3Ffamily%3DArchitects%2BDaughter;" vertex="1" parent="1">
          <mxGeometry x="-360" y="-270" width="100" height="40" as="geometry" />
        </mxCell>
        <mxCell id="WIoP-Z5x5fmVM3cqrzwO-19" value="descripcion" style="ellipse;whiteSpace=wrap;html=1;align=center;sketch=1;hachureGap=4;jiggle=2;curveFitting=1;fontFamily=Architects Daughter;fontSource=https%3A%2F%2Ffonts.googleapis.com%2Fcss%3Ffamily%3DArchitects%2BDaughter;" vertex="1" parent="1">
          <mxGeometry x="-250" y="-270" width="100" height="40" as="geometry" />
        </mxCell>
        <mxCell id="WIoP-Z5x5fmVM3cqrzwO-20" value="Es de tipo" style="shape=rhombus;perimeter=rhombusPerimeter;whiteSpace=wrap;html=1;align=center;sketch=1;hachureGap=4;jiggle=2;curveFitting=1;fontFamily=Architects Daughter;fontSource=https%3A%2F%2Ffonts.googleapis.com%2Fcss%3Ffamily%3DArchitects%2BDaughter;" vertex="1" parent="1">
          <mxGeometry x="-150" y="-190" width="120" height="60" as="geometry" />
        </mxCell>
      </root>
    </mxGraphModel>
  </diagram>
</mxfile>
